<?xml version="1.0" standalone="no"?>
<!DOCTYPE svg PUBLIC "-//W3C//DTD SVG 20010904//EN"
 "http://www.w3.org/TR/2001/REC-SVG-20010904/DTD/svg10.dtd">
<svg version="1.0" xmlns="http://www.w3.org/2000/svg"
 width="83.000000pt" height="83.000000pt" viewBox="0 0 83.000000 83.000000"
 preserveAspectRatio="xMidYMid meet">
<metadata>
Created by potrace 1.14, written by Peter Selinger 2001-2017
</metadata>
<g transform="translate(0.000000,83.000000) scale(0.100000,-0.100000)"
fill="#000000" stroke="none">
<path d="M345 782 c-27 -8 -97 -18 -155 -21 l-105 -6 -1 -85 c-1 -81 -21 -193
-33 -185 -17 10 -9 -99 12 -166 17 -54 23 -96 22 -156 -1 -52 3 -83 9 -84 6 0
47 -2 91 -4 44 -1 108 -10 142 -19 35 -9 72 -19 84 -21 21 -4 113 14 159 33
14 5 63 9 108 8 46 -1 86 3 89 8 4 5 6 46 5 91 -1 49 4 103 13 131 19 62 19
141 0 213 -8 31 -14 83 -14 116 0 33 0 75 0 93 l-1 32 -97 0 c-65 0 -113 6
-143 16 -61 22 -125 24 -185 6z m174 -17 c2 -3 -40 -4 -95 -4 -69 1 -89 4 -64
9 35 7 150 3 159 -5z m110 -50 c44 -27 84 -73 112 -126 16 -33 19 -58 18 -178
0 -137 -1 -140 -31 -188 -76 -122 -102 -133 -303 -133 -174 0 -201 7 -261 72
-59 62 -64 82 -64 256 l0 159 29 44 c36 54 64 81 111 105 31 17 55 19 194 16
146 -3 161 -5 195 -27z m-414 13 c-24 -13 -105 -98 -105 -110 0 -4 -3 -8 -7
-8 -5 0 -6 29 -5 65 l4 65 66 0 c54 -1 63 -3 47 -12z m544 -58 c1 -38 0 -70
-2 -70 -2 0 -16 18 -31 40 -14 22 -45 54 -68 70 l-41 30 70 0 70 0 2 -70z
m-674 -259 c0 -66 -3 -104 -8 -95 -16 29 -11 204 6 204 2 0 2 -49 2 -109z
m699 18 c2 -35 0 -73 -5 -84 -5 -12 -8 15 -8 69 -1 102 7 111 13 15z m-24
-268 l0 -70 -65 1 c-36 1 -65 5 -65 10 0 4 4 8 8 8 11 0 78 64 98 94 9 14 18
26 20 26 2 0 4 -31 4 -69z m-585 -23 c16 -15 33 -28 38 -28 4 0 7 -4 7 -10 0
-5 -27 -9 -60 -9 l-60 1 0 65 0 66 22 -29 c12 -16 36 -41 53 -56z m345 -70
c-31 -12 -163 -13 -184 -1 -9 5 29 9 97 9 80 1 105 -1 87 -8z"/>
</g>
</svg>
